<?xml version="1.0" encoding="UTF-8" standalone="no"?>
<!-- Created with Inkscape (http://www.inkscape.org/) -->

<svg
   xmlns:dc="http://purl.org/dc/elements/1.1/"
   xmlns:cc="http://creativecommons.org/ns#"
   xmlns:rdf="http://www.w3.org/1999/02/22-rdf-syntax-ns#"
   xmlns:svg="http://www.w3.org/2000/svg"
   xmlns="http://www.w3.org/2000/svg"
   xmlns:sodipodi="http://sodipodi.sourceforge.net/DTD/sodipodi-0.dtd"
   xmlns:inkscape="http://www.inkscape.org/namespaces/inkscape"
   width="256"
   height="256"
   id="svg2"
   version="1.1"
   inkscape:version="0.48.4 r9939"
   sodipodi:docname="Neues Dokument 1">
  <defs
     id="defs4" />
  <sodipodi:namedview
     id="base"
     pagecolor="#ffffff"
     bordercolor="#666666"
     borderopacity="1.0"
     inkscape:pageopacity="0.0"
     inkscape:pageshadow="2"
     inkscape:zoom="1.979899"
     inkscape:cx="104.77413"
     inkscape:cy="87.109823"
     inkscape:document-units="px"
     inkscape:current-layer="g3"
     showgrid="false"
     inkscape:window-width="1847"
     inkscape:window-height="1053"
     inkscape:window-x="73"
     inkscape:window-y="27"
     inkscape:window-maximized="1" />
  <metadata
     id="metadata7">
    <rdf:RDF>
      <cc:Work
         rdf:about="">
        <dc:format>image/svg+xml</dc:format>
        <dc:type
           rdf:resource="http://purl.org/dc/dcmitype/StillImage" />
        <dc:title></dc:title>
      </cc:Work>
    </rdf:RDF>
  </metadata>
  <g
     inkscape:label="Ebene 1"
     inkscape:groupmode="layer"
     id="layer1"
     transform="translate(0,-796.36218)">
    <g
       transform="matrix(2.0710209,0,0,2.0669416,-0.27125665,798.15423)"
       id="g3">
      <path
         inkscape:connector-curvature="0"
         style="fill:#ffffff"
         d="m 65.055,42.934 c 0,1.195 -0.945,2.125 -2.148,2.125 H 40.43 c -1.211,0 -2.148,-0.93 -2.148,-2.125 V 23.98 c 0,-1.195 0.938,-2.125 2.148,-2.125 h 22.477 c 1.203,0 2.148,0.93 2.148,2.125 v 18.954 z m 26.203,2.421 c -2.844,-0.625 -3.875,-2.086 -3.875,-3.43 v -4.898 c 0,0 1.891,0.422 2.344,0.539 0.922,0.242 1.508,1.656 1.531,2.891 0.031,1.234 0,4.898 0,4.898 z m 5.726,29.758 c 0,-0.047 -0.789,-6.016 -0.789,-6.016 V 41.535 c 0,-2.953 -0.969,-5.352 -2.969,-7.367 L 80.461,21.465 c -0.883,0 -3.32,2.43 -3.32,2.43 0,0.883 6.336,7.172 6.336,7.172 l -0.188,10.695 c 0,3.797 3.086,6.875 6.898,6.875 l 1.711,0.023 -0.609,20.438 0.852,7.008 3.836,20.68 c 0.141,3.359 -2.93,5.359 -5.352,5.359 -2.242,0 -4.844,-1.852 -4.844,-4.242 l 0.047,-36.242 c 0,-4.406 -3.578,-7.984 -7.984,-7.984 h -7.703 c 0.539,-0.031 0.562,-23.734 0.562,-28.766 v -0.93 c 0,-4.289 -3.5,-7.781 -7.797,-7.781 H 40.43 c -4.297,0 -7.797,3.492 -7.797,7.781 v 82.148 l 38.07,0.633 0.039,-47.992 h 7.188 c 1.648,0 2.992,1.344 2.992,2.992 v 36.141 c 0,4.852 4.531,9.102 9.703,9.102 4.883,0 10.352,-3.883 10.352,-9.102 -0.09,-1.189 -3.996,-22.775 -3.996,-22.775 z"
         id="path9" />
      <rect
         style="fill:#009b00;fill-opacity:1;stroke:none"
         id="rect3039"
         width="123.64613"
         height="124.37886"
         x="0.13097714"
         y="-0.65828854" />
      <path
         inkscape:connector-curvature="0"
         style="fill:#ffffff"
         d="m 63.008631,43.717899 c 0,1.195 -0.945,2.125 -2.148,2.125 h -22.477 c -1.211,0 -2.148,-0.93 -2.148,-2.125 V 24.763895 c 0,-1.195 0.938,-2.125 2.148,-2.125 h 22.477 c 1.203,0 2.148,0.93 2.148,2.125 v 18.954004 z m 26.203,2.421 c -2.844,-0.625 -3.87501,-2.086 -3.87501,-3.43 v -4.898003 c 0,0 1.891,0.421999 2.34401,0.538999 0.922,0.242 1.508,1.656001 1.531,2.891 0.031,1.234 0,4.898004 0,4.898004 z m 5.726,29.758 c 0,-0.047 -0.789,-6.016 -0.789,-6.016 V 42.318895 c 0,-2.953 -0.969,-5.352 -2.969,-7.366999 l -12.765,-12.703001 c -0.883,0 -3.32,2.43 -3.32,2.43 0,0.883 6.336,7.172 6.336,7.172 l -0.18801,10.695 c 0,3.797004 3.08601,6.875004 6.89801,6.875004 l 1.711,0.023 -0.609,20.438 0.852,7.00799 3.836,20.68001 c 0.141,3.359001 -2.93,5.359001 -5.35201,5.359001 -2.24199,0 -4.84399,-1.852 -4.84399,-4.242001 l 0.047,-36.242 c 0,-4.406 -3.57801,-7.984 -7.984,-7.984 h -7.70299 c 0.539,-0.031 0.562,-23.734003 0.562,-28.766004 v -0.93 c 0,-4.289 -3.5,-7.781 -7.797,-7.781 h -22.47599 c -4.297,0 -7.797,3.492 -7.797,7.781 V 106.9129 l 38.07,0.633 0.039,-47.992001 h 7.188 c 1.648,0 2.992,1.344 2.992,2.992 v 36.141 c 0,4.852001 4.53099,9.101991 9.70299,9.101991 4.88301,0 10.35201,-3.88299 10.35201,-9.101991 -0.09,-1.189 -3.99601,-22.77501 -3.99601,-22.77501 z"
         id="path9-6" />
    </g>
  </g>
</svg>
